<svg class="border shadow-md" viewBox="0 0 875.3066666666666 656.48" style="width: 875.307px; height: 656.48px;" xmlns="http://www.w3.org/2000/svg" preserveAspectRatio="none"><rect class="bg" id="bg" x="0" y="0" width="875.3066666666666" height="656.48" fill="#ffffff"/><g transform="rotate(0 437.6533333333333 328.24)"><path d="M -179.22 -52.06 S -99.61 -93.09&#10;            0.00 -52.06 14.22 -93.09&#10;            179.22 -52.06 258.83 -93.09&#10;            358.44 -52.06 438.04 -101.06&#10;            537.65 -52.06 595.87 -96.06&#10;            716.87 -52.06 796.48 -113.06&#10;            896.09 -52.06 975.70 -117.06&#10;            1075.31 -52.06 1154.92 -93.09&#10;            1254.52 -52.06 h 110 V 856.48 H -179.22 Z" fill="#3C90C9" id="-1"/><path d="M -179.22 30.00 S -99.61 -11.03&#10;            0.00 30.00 79.61 -50.00&#10;            179.22 30.00 258.83 -11.03&#10;            358.44 30.00 438.04 -11.03&#10;            537.65 30.00 587.87 -27.00&#10;            716.87 30.00 796.48 -11.03&#10;            896.09 30.00 975.70 -27.00&#10;            1075.31 30.00 1128.52 -50.00&#10;            1254.52 30.00 h 110 V 856.48 H -179.22 Z" fill="#3681bc" id="0"/><path id="1" d="M -179.22 112.06 S -99.61 71.03&#10;            0.00 112.06 64.22 71.03&#10;            179.22 112.06 172.44 52.06&#10;            358.44 112.06 438.04 68.06&#10;            537.65 112.06 605.87 54.06&#10;            716.87 112.06 709.09 71.03&#10;            896.09 112.06 900.31 41.06&#10;            1075.31 112.06 1114.52 51.06&#10;            1254.52 112.06 h 110 V 856.48 H -179.22 Z" fill="#3072af"/><path id="2" d="M -179.22 194.12 S -99.61 153.09&#10;            0.00 194.12 79.61 153.09&#10;            179.22 194.12 254.44 153.09&#10;            358.44 194.12 358.65 153.09&#10;            537.65 194.12 617.26 153.09&#10;            716.87 194.12 796.48 153.09&#10;            896.09 194.12 975.70 145.12&#10;            1075.31 194.12 1154.92 153.09&#10;            1254.52 194.12 h 110 V 856.48 H -179.22 Z" fill="#2a63a2"/><path id="3" d="M -179.22 276.18 S -99.61 228.18&#10;            0.00 276.18 -6.78 213.18&#10;            179.22 276.18 258.83 235.15&#10;            358.44 276.18 416.65 202.18&#10;            537.65 276.18 617.26 235.15&#10;            716.87 276.18 796.48 204.18&#10;            896.09 276.18 975.70 211.18&#10;            1075.31 276.18 1154.92 235.15&#10;            1254.52 276.18 h 110 V 856.48 H -179.22 Z" fill="#245495"/><path id="4" d="M -179.22 358.24 S -99.61 317.21&#10;            0.00 358.24 79.61 317.21&#10;            179.22 358.24 258.83 291.24&#10;            358.44 358.24 438.04 312.24&#10;            537.65 358.24 617.26 317.21&#10;            716.87 358.24 752.09 317.21&#10;            896.09 358.24 975.70 312.24&#10;            1075.31 358.24 1087.52 317.21&#10;            1254.52 358.24 h 110 V 856.48 H -179.22 Z" fill="#1e4588"/><path id="5" d="M -179.22 440.30 S -99.61 399.27&#10;            0.00 440.30 79.61 391.30&#10;            179.22 440.30 194.44 399.27&#10;            358.44 440.30 438.04 385.30&#10;            537.65 440.30 617.26 399.27&#10;            716.87 440.30 792.09 371.30&#10;            896.09 440.30 975.70 368.30&#10;            1075.31 440.30 1154.92 399.27&#10;            1254.52 440.30 h 110 V 856.48 H -179.22 Z" fill="#18367b"/><path id="6" d="M -179.22 522.36 S -99.61 449.36&#10;            0.00 522.36 70.22 448.36&#10;            179.22 522.36 258.83 456.36&#10;            358.44 522.36 438.04 481.33&#10;            537.65 522.36 617.26 458.36&#10;            716.87 522.36 770.09 481.33&#10;            896.09 522.36 918.31 451.36&#10;            1075.31 522.36 1082.52 481.33&#10;            1254.52 522.36 h 110 V 856.48 H -179.22 Z" fill="#12276e"/><path id="7" d="M -179.22 604.42 S -164.00 563.39&#10;            0.00 604.42 79.61 559.42&#10;            179.22 604.42 258.83 563.39&#10;            358.44 604.42 438.04 563.39&#10;            537.65 604.42 532.87 550.42&#10;            716.87 604.42 755.09 554.42&#10;            896.09 604.42 975.70 563.39&#10;            1075.31 604.42 1135.52 527.42&#10;            1254.52 604.42 h 110 V 856.48 H -179.22 Z" fill="#0c1861"/></g></svg>